<?xml version="1.0" encoding="UTF-8"?>
<svg id="Capa_1" data-name="Capa 1" xmlns="http://www.w3.org/2000/svg" viewBox="0 0 1920 1080">
  <defs>
    <style>
      .cls-1 {
        fill: #5c0807;
        stroke-width: 0px;
      }
    </style>
  </defs>
  <path class="cls-1" d="m841.23,346.88v278.22h264.37v-278.22h-264.37Zm222.28,242.77h-32.91v-71.29c-4.43-1.14-8.82-2.41-13.08-3.64-13.71-3.97-27.87-8.06-44.45-8.06-15.66,0-28.87,3.93-41.64,7.72-4.94,1.47-10.01,2.97-15.24,4.28v71h-33.19v-205.62h33.19v97.69c3.05-.86,6.12-1.78,9.29-2.73,14.26-4.28,28.94-8.69,47.59-8.69s35,4.61,50.05,9.07c2.55.76,5.03,1.49,7.48,2.19v-97.53h32.91v205.62Z"/>
  <g>
    <path class="cls-1" d="m1273.6,412.56c-39.18,0-72.29,34.28-72.29,74.85s33.1,73.71,72.29,73.71,72-33.76,72-73.71-32.97-74.85-72-74.85Z"/>
    <path class="cls-1" d="m1141.25,346.88v278.22h218.55l46.15-90.84v-187.39h-264.7Zm206.73,215.96c-20.02,20.15-46.44,31.24-74.38,31.24s-54.36-11.1-74.38-31.24c-20.1-20.22-31.17-47.01-31.17-75.44s11.05-55.59,31.12-76.07c20.07-20.48,46.5-31.76,74.43-31.76s54.36,11.28,74.43,31.76c20.07,20.48,31.12,47.49,31.12,76.07s-11.07,55.22-31.17,75.44Z"/>
  </g>
  <g>
    <path class="cls-1" d="m593.92,346.88l-52.88,101.99v176.23h264.38v-278.22h-211.49Zm170.16,241.43c-8.1,0-16.25-.73-24.22-2.17-6.67-1.2-12.78-2.58-18.16-4.09-15.13-4.24-31.22-8.38-47.07-8.38-1.22,0-2.47.02-3.7.07-14.05.53-28.06,4.66-41.61,8.65-2.04.6-4.03,1.15-6.01,1.67-10.77,2.81-22.12,4.24-33.75,4.24h-23.11l73.84-204.29h66.36l74.17,204.29h-16.72Z"/>
    <path class="cls-1" d="m663.1,416.94l-35.33,97.7-4.43,12.45-8.64,23.92c3.81-1.03,7.62-2.18,11.55-3.36,14.5-4.36,29.42-8.84,48.38-8.84s35.58,4.69,50.89,9.23c2.15.64,4.24,1.25,6.29,1.85l-8.23-22.77-4.66-12.34-35.13-97.83h-20.69Z"/>
  </g>
  <g>
    <rect class="cls-1" x="663.8" y="694.75" width="8.6" height="45.54"/>
    <polygon class="cls-1" points="728.01 724.76 703.6 694.75 699.98 694.75 699.32 694.75 696.53 694.75 696.53 740.29 705.13 740.29 705.13 710.28 729.54 740.29 733.16 740.29 733.82 740.29 736.67 740.29 736.67 694.75 728.01 694.75 728.01 724.76"/>
    <polygon class="cls-1" points="799.66 694.75 796.3 694.75 782.44 714.4 768.41 694.75 765.05 694.75 763.36 694.75 760.51 694.75 760.51 740.29 769.17 740.29 769.17 710.68 780.47 726.71 784.44 726.71 795.5 710.87 795.5 740.29 804.09 740.29 804.09 694.75 801.31 694.75 799.66 694.75"/>
    <path class="cls-1" d="m849.87,694.34c-12.59,0-22.83,10.45-22.83,23.3s10.24,23.07,22.83,23.07,22.83-10.35,22.83-23.07-10.24-23.3-22.83-23.3Zm0,37.83c-7.71,0-14.23-6.65-14.23-14.53s6.52-14.76,14.23-14.76,14.17,6.76,14.17,14.76-6.49,14.53-14.17,14.53Z"/>
    <path class="cls-1" d="m924.8,717.07c2.28-2.31,3.59-5.38,3.59-8.74,0-7.87-6.16-13.58-14.64-13.58h-19.39v45.54h20.28c8.9,0,14.64-5.47,14.64-13.93,0-3.81-1.63-7.08-4.48-9.28Zm-10.17,14.8h-11.62v-9.96h11.62c2.91,0,6.05,1.39,6.05,4.45,0,3.71-1.98,5.51-6.05,5.51Zm-.89-18.26h-10.73v-10.44h10.73c3.67,0,6.05,2.03,6.05,5.16,0,2.81-2.83,5.28-6.05,5.28Z"/>
    <rect class="cls-1" x="951.52" y="694.75" width="8.6" height="45.54"/>
    <polygon class="cls-1" points="992.67 694.75 984.07 694.75 984.07 740.29 1015.91 740.29 1015.91 731.63 992.67 731.63 992.67 694.75"/>
    <rect class="cls-1" x="1037.74" y="694.75" width="8.6" height="45.54"/>
    <path class="cls-1" d="m1082.54,694.75l-16.45,45.54h9.08l4.41-12.21c1.57-.26,2.97-.68,4.35-1.09,2.02-.6,3.93-1.17,6.21-1.17,2.44,0,4.49.6,6.67,1.23,1.27.37,2.56.74,3.94,1l4.43,12.25h9.08l-16.45-45.54h-15.29Zm9.31,8.6l5.46,15.21c-2.07-.59-4.4-1.15-7.15-1.15s-5.11.6-7.16,1.2l5.52-15.26h3.33Z"/>
    <path class="cls-1" d="m1167.12,709.63c0-5.56-2.26-14.88-17.37-14.88h-16.31v45.54h8.66v-15.71h7.65c.35,0,.7,0,1.04,0l9.93,15.72h10.25l-11.13-17.62c4.78-2.34,7.28-6.78,7.28-13.03Zm-25.02-6.46h7.65c7.73,0,8.78,3.24,8.78,6.4,0,4.21-1.44,6.64-8.78,6.64h-7.65v-13.04Z"/>
    <rect class="cls-1" x="1189.84" y="694.75" width="8.6" height="45.54"/>
    <path class="cls-1" d="m1234.65,694.75l-16.45,45.54h9.08l4.41-12.21c1.57-.26,2.98-.68,4.35-1.09,2.02-.6,3.93-1.17,6.21-1.17,2.44,0,4.49.6,6.67,1.23,1.27.37,2.56.74,3.94,1l4.43,12.25h9.08l-16.45-45.54h-15.29Zm9.31,8.6l5.46,15.21c-2.07-.59-4.4-1.15-7.15-1.15s-5.11.6-7.16,1.2l5.52-15.26h3.33Z"/>
  </g>
</svg>